<svg xmlns="http://www.w3.org/2000/svg" 
version="1.1" 
xmlns:xlink="http://www.w3.org/1999/xlink" 
xmlns:svgjs="http://svgjs.com/svgjs" 
width="50" height="50" x="0" y="0" 
viewBox="0 0 64 64" style="enable-background:new 0 0 512 512" 
xml:space="preserve"><g>
   <path d="M27.301 31H16a1 1 0 1 1 0-2h11.301a1 1 0 1 1 0 2zM28.687 25H16a1 1 0 1 1 0-2h12.687a1 1 0 1 1 0 2zM40 49H16a1 1 0 1 1 0-2h24a1 1 0 1 1 0 2zM40 43H16a1 1 0 1 1 0-2h24a1 1 0 1 1 0 2zM40 37H16a1 1 0 1 1 0-2h24a1 1 0 1 1 0 2zM50 20.657a.997.997 0 0 1-.707-.293l-5.657-5.657a.999.999 0 1 1 1.414-1.414l5.657 5.657A.999.999 0 0 1 50 20.657zM46 53a1 1 0 0 1-1-1V23.657a1 1 0 1 1 2 0V52a1 1 0 0 1-1 1zM40.343 19H12a1 1 0 1 1 0-2h28.343a1 1 0 1 1 0 2z" fill="yellow" data-original="#000000"></path>
   <path d="M31.908 27.436a.999.999 0 0 1-.707-1.707l15.264-15.264a.999.999 0 1 1 1.414 1.414L32.615 27.143a.999.999 0 0 1-.707.293zM37.564 33.092a.999.999 0 0 1-.707-1.707l15.264-15.264a.999.999 0 1 1 1.414 1.414L38.271 32.799a.997.997 0 0 1-.707.293z" fill="yellow" data-original="#000000"></path>
   <path d="M30.859 34.142a1.002 1.002 0 0 1-.989-1.155l1.05-6.706c.085-.546.6-.915 1.143-.834.545.086.918.598.833 1.143l-1.05 6.706a1.001 1.001 0 0 1-.987.846z" fill="yellow" data-original="#000000"></path>
   <path d="M30.856 34.142a1 1 0 0 1-.153-1.989l6.707-1.05a1.005 1.005 0 0 1 1.143.834 1.002 1.002 0 0 1-.833 1.143l-6.707 1.05a1.047 1.047 0 0 1-.157.012zM52.829 17.828a.999.999 0 0 1-.707-1.707c.557-.557.863-1.31.863-2.121s-.307-1.564-.863-2.121c-1.113-1.113-3.13-1.113-4.243 0a.999.999 0 1 1-1.414-1.414c.933-.935 2.189-1.449 3.535-1.449s2.602.515 3.536 1.449c.935.934 1.449 2.189 1.449 3.535s-.515 2.602-1.449 3.535a1 1 0 0 1-.707.293zM10 53a1 1 0 0 1-1-1V20a1 1 0 1 1 2 0v32a1 1 0 0 1-1 1z" fill="yellow" data-original="#000000"></path>
   <path d="M10 21a1 1 0 0 1-1-1c0-1.654 1.346-3 3-3a1 1 0 1 1 0 2c-.551 0-1 .448-1 1a1 1 0 0 1-1 1zM44 55H12a1 1 0 1 1 0-2h32a1 1 0 1 1 0 2z" fill="yellow" data-original="#000000"></path>
   <path d="M44 55a1 1 0 1 1 0-2c.551 0 1-.448 1-1a1 1 0 1 1 2 0c0 1.654-1.346 3-3 3zM12 55c-1.654 0-3-1.346-3-3a1 1 0 1 1 2 0c0 .552.449 1 1 1a1 1 0 1 1 0 2z" fill="yellow" data-original="#000000"></path></g></svg>